<svg version="1.1" xmlns="http://www.w3.org/2000/svg" xmlns:xlink="http://www.w3.org/1999/xlink" width="812" height="819"><defs/><g><g/><g/><g/><g/><g/><g/><g/><g/><g/><g/><g/><g/><g/><g/><g><rect fill="white" stroke="none" x="0" y="0" width="812" height="819"/></g><g/><g><path fill="none" stroke="black" paint-order="fill stroke markers" d=" M 56.40833373339453 59.284222437999986 L 56.40833373339453 819.248142118" stroke-miterlimit="10" stroke-width="1.4659797833333332" stroke-dasharray="13.532121076923076,5.863919133333333"/><path fill="none" stroke="black" paint-order="fill stroke markers" d=" M 280.8270217988893 59.284222437999986 L 280.8270217988893 819.248142118" stroke-miterlimit="10" stroke-width="1.4659797833333332" stroke-dasharray="13.532121076923076,5.863919133333333"/><path fill="none" stroke="black" paint-order="fill stroke markers" d=" M 462.8691992442669 59.284222437999986 L 462.8691992442669 819.248142118" stroke-miterlimit="10" stroke-width="1.4659797833333332" stroke-dasharray="13.532121076923076,5.863919133333333"/><path fill="none" stroke="black" paint-order="fill stroke markers" d=" M 759.5983686708945 59.284222437999986 L 759.5983686708945 819.248142118" stroke-miterlimit="10" stroke-width="1.4659797833333332" stroke-dasharray="13.532121076923076,5.863919133333333"/></g><g><path fill="none" stroke="none"/><g><path fill="white" stroke="black" paint-order="fill stroke markers" d=" M 8.795878699999996 11.786477457999997 L 104.02078876678905 11.786477457999997 L 104.02078876678905 59.284222437999986 L 8.795878699999996 59.284222437999986 L 8.795878699999996 11.786477457999997 Z" stroke-miterlimit="10" stroke-width="2.814681184" stroke-dasharray=""/></g><g><g/><text fill="black" stroke="none" font-family="sans-serif" font-size="11pt" font-style="normal" font-weight="normal" text-decoration="normal" x="27.882935478999997" y="41.692465037999995" text-anchor="start" dominant-baseline="alphabetic">Bipython</text></g><path fill="none" stroke="none"/><g><path fill="white" stroke="black" paint-order="fill stroke markers" d=" M 246.26395183629555 11.786477457999997 L 315.39009176148306 11.786477457999997 L 315.39009176148306 59.284222437999986 L 246.26395183629555 59.284222437999986 L 246.26395183629555 11.786477457999997 Z" stroke-miterlimit="10" stroke-width="2.814681184" stroke-dasharray=""/></g><g><g/><text fill="black" stroke="none" font-family="sans-serif" font-size="11pt" font-style="normal" font-weight="normal" text-decoration="normal" x="265.35100861529554" y="41.692465037999995" text-anchor="start" dominant-baseline="alphabetic">User</text></g><path fill="none" stroke="none"/><g><path fill="white" stroke="black" paint-order="fill stroke markers" d=" M 414.4407118012044 11.786477457999997 L 511.29768668732936 11.786477457999997 L 511.29768668732936 59.284222437999986 L 414.4407118012044 59.284222437999986 L 414.4407118012044 11.786477457999997 Z" stroke-miterlimit="10" stroke-width="2.814681184" stroke-dasharray=""/></g><g><g/><text fill="black" stroke="none" font-family="sans-serif" font-size="11pt" font-style="normal" font-weight="normal" text-decoration="normal" x="433.5277685802044" y="41.692465037999995" text-anchor="start" dominant-baseline="alphabetic">AlignSeq</text></g><path fill="none" stroke="none"/><g><path fill="white" stroke="black" paint-order="fill stroke markers" d=" M 715.6509069236328 11.786477457999997 L 803.5458304181562 11.786477457999997 L 803.5458304181562 59.284222437999986 L 715.6509069236328 59.284222437999986 L 715.6509069236328 11.786477457999997 Z" stroke-miterlimit="10" stroke-width="2.814681184" stroke-dasharray=""/></g><g><g/><text fill="black" stroke="none" font-family="sans-serif" font-size="11pt" font-style="normal" font-weight="normal" text-decoration="normal" x="734.7379637026328" y="41.692465037999995" text-anchor="start" dominant-baseline="alphabetic">Pandas</text></g></g><g><path fill="white" stroke="black" paint-order="fill stroke markers" d=" M 47.612455033394525 68.08010113799999 L 65.20421243339453 68.08010113799999 L 65.20421243339453 166.593942578 L 47.612455033394525 166.593942578 L 47.612455033394525 68.08010113799999" stroke-miterlimit="10" stroke-width="1.4659797833333332" stroke-dasharray=""/><path fill="white" stroke="black" paint-order="fill stroke markers" d=" M 454.0733205442669 166.593942578 L 471.6650779442669 166.593942578 L 471.6650779442669 560.6493083379999 L 454.0733205442669 560.6493083379999 L 454.0733205442669 166.593942578" stroke-miterlimit="10" stroke-width="1.4659797833333332" stroke-dasharray=""/><path fill="white" stroke="black" paint-order="fill stroke markers" d=" M 750.8024899708945 166.593942578 L 768.3942473708945 166.593942578 L 768.3942473708945 560.6493083379999 L 750.8024899708945 560.6493083379999 L 750.8024899708945 166.593942578" stroke-miterlimit="10" stroke-width="1.4659797833333332" stroke-dasharray=""/><path fill="white" stroke="black" paint-order="fill stroke markers" d=" M 47.612455033394525 560.6493083379999 L 65.20421243339453 560.6493083379999 L 65.20421243339453 757.676991218 L 47.612455033394525 757.676991218 L 47.612455033394525 560.6493083379999" stroke-miterlimit="10" stroke-width="1.4659797833333332" stroke-dasharray=""/><g><g><rect fill="white" stroke="none" x="102.72833971219661" y="94.46773723799998" width="140.57455480789062" height="22.86928462"/></g><text fill="black" stroke="none" font-family="sans-serif" font-size="11pt" font-style="normal" font-weight="normal" text-decoration="normal" x="105.36710332219661" y="110.30031889799997" text-anchor="start" dominant-baseline="alphabetic">Identifiant Genebank</text></g><g><path fill="none" stroke="black" paint-order="fill stroke markers" d=" M 280.8270217988893 117.33702185799999 L 68.1361720000612 117.33702185799999" stroke-miterlimit="10" stroke-width="1.4659797833333332" stroke-dasharray=""/><g transform="translate(65.20421243339453,117.33702185799999) translate(-65.20421243339453,-117.33702185799999)"><path fill="black" stroke="none" paint-order="stroke fill markers" d=" M 79.86401026672786 110.00712294133332 L 65.20421243339453 117.33702185799999 L 79.86401026672786 124.66692077466665 Z"/></g></g><g><g><rect fill="white" stroke="none" x="130.86719469266535" y="143.724657958" width="84.29684484695312" height="22.86928462"/></g><text fill="black" stroke="none" font-family="sans-serif" font-size="11pt" font-style="normal" font-weight="normal" text-decoration="normal" x="133.50595830266536" y="159.557239618" text-anchor="start" dominant-baseline="alphabetic">mRNA fasta</text></g><g><path fill="none" stroke="black" paint-order="fill stroke markers" d=" M 65.20421243339453 166.593942578 L 277.89506223222264 166.593942578" stroke-miterlimit="10" stroke-width="1.4659797833333332" stroke-dasharray="7.0367029599999995"/><g transform="translate(280.8270217988893,166.593942578) translate(-280.8270217988893,-166.593942578)"><path fill="black" stroke="none" paint-order="stroke fill markers" d=" M 266.16722396555593 159.26404366133332 L 280.8270217988893 166.593942578 L 266.16722396555593 173.92384149466668 Z"/></g></g><g><g><rect fill="white" stroke="none" x="324.875845427789" y="192.98157867799998" width="85.14865148757812" height="22.86928462"/></g><text fill="black" stroke="none" font-family="sans-serif" font-size="11pt" font-style="normal" font-weight="normal" text-decoration="normal" x="327.514609037789" y="208.814160338" text-anchor="start" dominant-baseline="alphabetic">SeqA, SeqB</text></g><g><path fill="none" stroke="black" paint-order="fill stroke markers" d=" M 280.8270217988893 215.85086329799998 L 451.14136097760024 215.85086329799998" stroke-miterlimit="10" stroke-width="1.4659797833333332" stroke-dasharray=""/><g transform="translate(454.0733205442669,215.85086329799998) translate(-454.0733205442669,-215.85086329799998)"><path fill="black" stroke="none" paint-order="stroke fill markers" d=" M 439.41352271093353 208.5209643813333 L 454.0733205442669 215.85086329799998 L 439.41352271093353 223.18076221466666 Z"/></g></g><g><g><rect fill="white" stroke="none" x="492.48199086760025" y="242.23849939799996" width="237.50358617996093" height="22.86928462"/></g><text fill="black" stroke="none" font-family="sans-serif" font-size="11pt" font-style="normal" font-weight="normal" text-decoration="normal" x="495.12075447760026" y="258.07108105799995" text-anchor="start" dominant-baseline="alphabetic">InitializeTable(len(SeqA),len(SeqB))</text></g><g><path fill="none" stroke="black" paint-order="fill stroke markers" d=" M 471.6650779442669 265.10778401799996 L 747.8705304042278 265.10778401799996" stroke-miterlimit="10" stroke-width="1.4659797833333332" stroke-dasharray=""/><g transform="translate(750.8024899708945,265.10778401799996) translate(-750.8024899708945,-265.10778401799996)"><path fill="black" stroke="none" paint-order="stroke fill markers" d=" M 736.1426921375612 257.7778851013333 L 750.8024899708945 265.10778401799996 L 736.1426921375612 272.4376829346666 Z"/></g></g><g><g><rect fill="white" stroke="none" x="550.3380547103737" y="291.49542011799997" width="121.79145849441406" height="22.86928462"/></g><text fill="black" stroke="none" font-family="sans-serif" font-size="11pt" font-style="normal" font-weight="normal" text-decoration="normal" x="552.9768183203737" y="307.328001778" text-anchor="start" dominant-baseline="alphabetic">DataFrame object</text></g><g><path fill="none" stroke="black" paint-order="fill stroke markers" d=" M 750.8024899708945 314.36470473799994 L 474.59703751093355 314.36470473799994" stroke-miterlimit="10" stroke-width="1.4659797833333332" stroke-dasharray="7.0367029599999995"/><g transform="translate(471.6650779442669,314.36470473799994) translate(-471.6650779442669,-314.36470473799994)"><path fill="black" stroke="none" paint-order="stroke fill markers" d=" M 486.32487577760025 307.0348058213333 L 471.6650779442669 314.36470473799994 L 486.32487577760025 321.6946036546666 Z"/></g></g><g><g><rect fill="white" stroke="none" x="507.5392265853737" y="340.75234083799995" width="207.38911474441406" height="22.86928462"/></g><text fill="black" stroke="none" font-family="sans-serif" font-size="11pt" font-style="normal" font-weight="normal" text-decoration="normal" x="510.1779901953737" y="356.58492249799997" text-anchor="start" dominant-baseline="alphabetic">PopulateTables(SeqA,SeqB,df)</text></g><g><path fill="none" stroke="black" paint-order="fill stroke markers" d=" M 471.6650779442669 363.6216254579999 L 747.8705304042278 363.6216254579999" stroke-miterlimit="10" stroke-width="1.4659797833333332" stroke-dasharray=""/><g transform="translate(750.8024899708945,363.6216254579999) translate(-750.8024899708945,-363.6216254579999)"><path fill="black" stroke="none" paint-order="stroke fill markers" d=" M 736.1426921375612 356.2917265413333 L 750.8024899708945 363.6216254579999 L 736.1426921375612 370.9515243746666 Z"/></g></g><g><g><rect fill="white" stroke="none" x="533.219234519944" y="390.00926155799993" width="156.02909887527343" height="22.86928462"/></g><text fill="black" stroke="none" font-family="sans-serif" font-size="11pt" font-style="normal" font-weight="normal" text-decoration="normal" x="535.857998129944" y="405.84184321799995" text-anchor="start" dominant-baseline="alphabetic">Populated DataFrames</text></g><g><path fill="none" stroke="black" paint-order="fill stroke markers" d=" M 750.8024899708945 412.8785461779999 L 474.59703751093355 412.8785461779999" stroke-miterlimit="10" stroke-width="1.4659797833333332" stroke-dasharray="7.0367029599999995"/><g transform="translate(471.6650779442669,412.8785461779999) translate(-471.6650779442669,-412.8785461779999)"><path fill="black" stroke="none" paint-order="stroke fill markers" d=" M 486.32487577760025 405.54864726133326 L 471.6650779442669 412.8785461779999 L 486.32487577760025 420.20844509466656 Z"/></g></g><g><g><rect fill="white" stroke="none" x="542.0524635848855" y="439.2661822779999" width="138.36264074539062" height="22.86928462"/></g><text fill="black" stroke="none" font-family="sans-serif" font-size="11pt" font-style="normal" font-weight="normal" text-decoration="normal" x="544.6912271948854" y="455.09876393799993" text-anchor="start" dominant-baseline="alphabetic">Traceback(df,df_loc)</text></g><g><path fill="none" stroke="black" paint-order="fill stroke markers" d=" M 471.6650779442669 462.1354668979999 L 747.8705304042278 462.1354668979999" stroke-miterlimit="10" stroke-width="1.4659797833333332" stroke-dasharray=""/><g transform="translate(750.8024899708945,462.1354668979999) translate(-750.8024899708945,-462.1354668979999)"><path fill="black" stroke="none" paint-order="stroke fill markers" d=" M 736.1426921375612 454.80556798133324 L 750.8024899708945 462.1354668979999 L 736.1426921375612 469.46536581466654 Z"/></g></g><g><g><rect fill="white" stroke="none" x="545.4275475082253" y="488.5231029979999" width="131.61247289871093" height="22.86928462"/></g><text fill="black" stroke="none" font-family="sans-serif" font-size="11pt" font-style="normal" font-weight="normal" text-decoration="normal" x="548.0663111182253" y="504.3556846579999" text-anchor="start" dominant-baseline="alphabetic">Aligned Sequences</text></g><g><path fill="none" stroke="black" paint-order="fill stroke markers" d=" M 750.8024899708945 511.3923876179999 L 474.59703751093355 511.3923876179999" stroke-miterlimit="10" stroke-width="1.4659797833333332" stroke-dasharray="7.0367029599999995"/><g transform="translate(471.6650779442669,511.3923876179999) translate(-471.6650779442669,-511.3923876179999)"><path fill="black" stroke="none" paint-order="stroke fill markers" d=" M 486.32487577760025 504.0624887013332 L 471.6650779442669 511.3923876179999 L 486.32487577760025 518.7222865346665 Z"/></g></g><g><g><rect fill="white" stroke="none" x="301.6439347222226" y="537.7800237179998" width="131.61247289871093" height="22.86928462"/></g><text fill="black" stroke="none" font-family="sans-serif" font-size="11pt" font-style="normal" font-weight="normal" text-decoration="normal" x="304.2826983322226" y="553.6126053779998" text-anchor="start" dominant-baseline="alphabetic">Aligned Sequences</text></g><g><path fill="none" stroke="black" paint-order="fill stroke markers" d=" M 454.0733205442669 560.6493083379999 L 283.75898136555594 560.6493083379999" stroke-miterlimit="10" stroke-width="1.4659797833333332" stroke-dasharray="7.0367029599999995"/><g transform="translate(280.8270217988893,560.6493083379999) translate(-280.8270217988893,-560.6493083379999)"><path fill="black" stroke="none" paint-order="stroke fill markers" d=" M 295.48681963222265 553.3194094213331 L 280.8270217988893 560.6493083379999 L 295.48681963222265 567.9792072546666 Z"/></g></g><g><g><rect fill="white" stroke="none" x="136.56870226102473" y="587.0369444379999" width="72.89382971023437" height="22.86928462"/></g><text fill="black" stroke="none" font-family="sans-serif" font-size="11pt" font-style="normal" font-weight="normal" text-decoration="normal" x="139.20746587102474" y="602.8695260979998" text-anchor="start" dominant-baseline="alphabetic">GC(SeqA)</text></g><g><path fill="none" stroke="black" paint-order="fill stroke markers" d=" M 280.8270217988893 609.9062290579999 L 68.1361720000612 609.9062290579999" stroke-miterlimit="10" stroke-width="1.4659797833333332" stroke-dasharray=""/><g transform="translate(65.20421243339453,609.9062290579999) translate(-65.20421243339453,-609.9062290579999)"><path fill="black" stroke="none" paint-order="stroke fill markers" d=" M 79.86401026672786 602.5763301413332 L 65.20421243339453 609.9062290579999 L 79.86401026672786 617.2361279746666 Z"/></g></g><g><g><rect fill="white" stroke="none" x="152.86431841092707" y="636.2938651579999" width="40.302597410429684" height="22.86928462"/></g><text fill="black" stroke="none" font-family="sans-serif" font-size="11pt" font-style="normal" font-weight="normal" text-decoration="normal" x="155.50308202092708" y="652.1264468179999" text-anchor="start" dominant-baseline="alphabetic">GC%</text></g><g><path fill="none" stroke="black" paint-order="fill stroke markers" d=" M 65.20421243339453 659.1631497779999 L 277.89506223222264 659.1631497779999" stroke-miterlimit="10" stroke-width="1.4659797833333332" stroke-dasharray="7.0367029599999995"/><g transform="translate(280.8270217988893,659.1631497779999) translate(-280.8270217988893,-659.1631497779999)"><path fill="black" stroke="none" paint-order="stroke fill markers" d=" M 266.16722396555593 651.8332508613332 L 280.8270217988893 659.1631497779999 L 266.16722396555593 666.4930486946666 Z"/></g></g><g><g><rect fill="white" stroke="none" x="119.44989732938411" y="685.5507858779999" width="107.13143957351562" height="22.86928462"/></g><text fill="black" stroke="none" font-family="sans-serif" font-size="11pt" font-style="normal" font-weight="normal" text-decoration="normal" x="122.08866093938411" y="701.3833675379999" text-anchor="start" dominant-baseline="alphabetic">translate(SeqA)</text></g><g><path fill="none" stroke="black" paint-order="fill stroke markers" d=" M 280.8270217988893 708.420070498 L 68.1361720000612 708.420070498" stroke-miterlimit="10" stroke-width="1.4659797833333332" stroke-dasharray=""/><g transform="translate(65.20421243339453,708.420070498) translate(-65.20421243339453,-708.420070498)"><path fill="black" stroke="none" paint-order="stroke fill markers" d=" M 79.86401026672786 701.0901715813333 L 65.20421243339453 708.420070498 L 79.86401026672786 715.7499694146667 Z"/></g></g><g><g><rect fill="white" stroke="none" x="86.02112535672786" y="734.807706598" width="173.98898351882812" height="22.86928462"/></g><text fill="black" stroke="none" font-family="sans-serif" font-size="11pt" font-style="normal" font-weight="normal" text-decoration="normal" x="88.65988896672786" y="750.6402882579999" text-anchor="start" dominant-baseline="alphabetic">protein sequence of SeqA</text></g><g><path fill="none" stroke="black" paint-order="fill stroke markers" d=" M 65.20421243339453 757.676991218 L 277.89506223222264 757.676991218" stroke-miterlimit="10" stroke-width="1.4659797833333332" stroke-dasharray="7.0367029599999995"/><g transform="translate(280.8270217988893,757.676991218) translate(-280.8270217988893,-757.676991218)"><path fill="black" stroke="none" paint-order="stroke fill markers" d=" M 266.16722396555593 750.3470923013333 L 280.8270217988893 757.676991218 L 266.16722396555593 765.0068901346667 Z"/></g></g></g><g/><g/><g/><g/></g></svg>