<?xml version="1.0" encoding="UTF-8"?>
<!DOCTYPE svg PUBLIC "-//W3C//DTD SVG 1.1//EN" "http://www.w3.org/Graphics/SVG/1.1/DTD/svg11.dtd">
<svg width="380mm" height="226mm" viewBox="0 0 38000 22600" version="1.1" xmlns="http://www.w3.org/2000/svg" stroke-width="28.222" stroke-linejoin="round" xml:space="preserve">
 <path fill="rgb(255,255,255)" stroke="none" d="M 19010,22551 L 0,22551 0,0 38019,0 38019,22551 19010,22551 Z"/>
 <path fill="none" stroke="rgb(179,179,179)" stroke-linejoin="round" d="M 19259,21453 L 4768,21453 4768,451 33751,451 33751,21453 19259,21453 Z"/>
 <path fill="none" stroke="rgb(179,179,179)" stroke-linejoin="round" d="M 4768,450 L 4768,21452"/>
 <path fill="none" stroke="rgb(179,179,179)" stroke-linejoin="round" d="M 7666,450 L 7666,21452"/>
 <path fill="none" stroke="rgb(179,179,179)" stroke-linejoin="round" d="M 10564,450 L 10564,21452"/>
 <path fill="none" stroke="rgb(179,179,179)" stroke-linejoin="round" d="M 13463,450 L 13463,21452"/>
 <path fill="none" stroke="rgb(179,179,179)" stroke-linejoin="round" d="M 16361,450 L 16361,21452"/>
 <path fill="none" stroke="rgb(179,179,179)" stroke-linejoin="round" d="M 19259,450 L 19259,21452"/>
 <path fill="none" stroke="rgb(179,179,179)" stroke-linejoin="round" d="M 22157,450 L 22157,21452"/>
 <path fill="none" stroke="rgb(179,179,179)" stroke-linejoin="round" d="M 25055,450 L 25055,21452"/>
 <path fill="none" stroke="rgb(179,179,179)" stroke-linejoin="round" d="M 27954,450 L 27954,21452"/>
 <path fill="none" stroke="rgb(179,179,179)" stroke-linejoin="round" d="M 30852,450 L 30852,21452"/>
 <path fill="none" stroke="rgb(179,179,179)" stroke-linejoin="round" d="M 33751,450 L 33751,21452"/>
 <path fill="none" stroke="rgb(179,179,179)" stroke-linejoin="round" d="M 4618,21452 L 4768,21452"/>
 <path fill="none" stroke="rgb(179,179,179)" stroke-linejoin="round" d="M 4618,21452 L 4768,21452"/>
 <path fill="none" stroke="rgb(179,179,179)" stroke-linejoin="round" d="M 4618,17251 L 4768,17251"/>
 <path fill="none" stroke="rgb(179,179,179)" stroke-linejoin="round" d="M 4618,17251 L 4768,17251"/>
 <path fill="none" stroke="rgb(179,179,179)" stroke-linejoin="round" d="M 4618,13050 L 4768,13050"/>
 <path fill="none" stroke="rgb(179,179,179)" stroke-linejoin="round" d="M 4618,13050 L 4768,13050"/>
 <path fill="none" stroke="rgb(179,179,179)" stroke-linejoin="round" d="M 4618,8851 L 4768,8851"/>
 <path fill="none" stroke="rgb(179,179,179)" stroke-linejoin="round" d="M 4618,8851 L 4768,8851"/>
 <path fill="none" stroke="rgb(179,179,179)" stroke-linejoin="round" d="M 4618,4650 L 4768,4650"/>
 <path fill="none" stroke="rgb(179,179,179)" stroke-linejoin="round" d="M 4618,4650 L 4768,4650"/>
 <path fill="none" stroke="rgb(179,179,179)" stroke-linejoin="round" d="M 4618,450 L 4768,450"/>
 <path fill="none" stroke="rgb(179,179,179)" stroke-linejoin="round" d="M 4618,450 L 4768,450"/>
 <path fill="none" stroke="rgb(179,179,179)" stroke-linejoin="round" d="M 4768,21452 L 4768,450"/>
 <path fill="none" stroke="rgb(179,179,179)" stroke-linejoin="round" d="M 4768,21602 L 4768,21452"/>
 <path fill="none" stroke="rgb(179,179,179)" stroke-linejoin="round" d="M 4768,21602 L 4768,21452"/>
 <path fill="none" stroke="rgb(179,179,179)" stroke-linejoin="round" d="M 7666,21602 L 7666,21452"/>
 <path fill="none" stroke="rgb(179,179,179)" stroke-linejoin="round" d="M 7666,21602 L 7666,21452"/>
 <path fill="none" stroke="rgb(179,179,179)" stroke-linejoin="round" d="M 10564,21602 L 10564,21452"/>
 <path fill="none" stroke="rgb(179,179,179)" stroke-linejoin="round" d="M 10564,21602 L 10564,21452"/>
 <path fill="none" stroke="rgb(179,179,179)" stroke-linejoin="round" d="M 13463,21602 L 13463,21452"/>
 <path fill="none" stroke="rgb(179,179,179)" stroke-linejoin="round" d="M 13463,21602 L 13463,21452"/>
 <path fill="none" stroke="rgb(179,179,179)" stroke-linejoin="round" d="M 16361,21602 L 16361,21452"/>
 <path fill="none" stroke="rgb(179,179,179)" stroke-linejoin="round" d="M 16361,21602 L 16361,21452"/>
 <path fill="none" stroke="rgb(179,179,179)" stroke-linejoin="round" d="M 19259,21602 L 19259,21452"/>
 <path fill="none" stroke="rgb(179,179,179)" stroke-linejoin="round" d="M 19259,21602 L 19259,21452"/>
 <path fill="none" stroke="rgb(179,179,179)" stroke-linejoin="round" d="M 22157,21602 L 22157,21452"/>
 <path fill="none" stroke="rgb(179,179,179)" stroke-linejoin="round" d="M 22157,21602 L 22157,21452"/>
 <path fill="none" stroke="rgb(179,179,179)" stroke-linejoin="round" d="M 25055,21602 L 25055,21452"/>
 <path fill="none" stroke="rgb(179,179,179)" stroke-linejoin="round" d="M 25055,21602 L 25055,21452"/>
 <path fill="none" stroke="rgb(179,179,179)" stroke-linejoin="round" d="M 27954,21602 L 27954,21452"/>
 <path fill="none" stroke="rgb(179,179,179)" stroke-linejoin="round" d="M 27954,21602 L 27954,21452"/>
 <path fill="none" stroke="rgb(179,179,179)" stroke-linejoin="round" d="M 30852,21602 L 30852,21452"/>
 <path fill="none" stroke="rgb(179,179,179)" stroke-linejoin="round" d="M 30852,21602 L 30852,21452"/>
 <path fill="none" stroke="rgb(179,179,179)" stroke-linejoin="round" d="M 33751,21602 L 33751,21452"/>
 <path fill="none" stroke="rgb(179,179,179)" stroke-linejoin="round" d="M 33751,21602 L 33751,21452"/>
 <path fill="none" stroke="rgb(179,179,179)" stroke-linejoin="round" d="M 4768,21452 L 33751,21452"/>
 <path fill="rgb(255,66,14)" stroke="none" d="M 27954,3600 L 27954,1500 33751,1500 33751,3600 27954,3600 Z"/>
 <path fill="rgb(255,66,14)" stroke="none" d="M 16361,7801 L 16361,5700 27954,5700 27954,7801 16361,7801 Z"/>
 <path fill="rgb(255,66,14)" stroke="none" d="M 16361,12000 L 16361,9901 22157,9901 22157,12000 16361,12000 Z"/>
 <path fill="rgb(255,66,14)" stroke="none" d="M 10564,16201 L 10564,14100 16361,14100 16361,16201 10564,16201 Z"/>
 <path fill="rgb(255,66,14)" stroke="none" d="M 4768,20401 L 4768,18301 27954,18301 27954,20401 4768,20401 Z"/>
 <text class="TextShape"><tspan class="TextParagraph" font-family="Liberation Sans, sans-serif" font-size="353px" font-weight="400"><tspan class="TextPosition" x="2930" y="19472"><tspan fill="rgb(0,0,0)" stroke="none">BioPython</tspan></tspan></tspan></text>
 <text class="TextShape"><tspan class="TextParagraph" font-family="Liberation Sans, sans-serif" font-size="353px" font-weight="400"><tspan class="TextPosition" x="1766" y="15272"><tspan fill="rgb(0,0,0)" stroke="none">Modélisation UML</tspan></tspan></tspan></text>
 <text class="TextShape"><tspan class="TextParagraph" font-family="Liberation Sans, sans-serif" font-size="353px" font-weight="400"><tspan class="TextPosition" x="761" y="11071"><tspan fill="rgb(0,0,0)" stroke="none">Sélection des ontologies</tspan></tspan></tspan></text>
 <text class="TextShape"><tspan class="TextParagraph" font-family="Liberation Sans, sans-serif" font-size="353px" font-weight="400"><tspan class="TextPosition" x="920" y="6870"><tspan fill="rgb(0,0,0)" stroke="none">Création BD/Requêtage</tspan></tspan></tspan></text>
 <text class="TextShape"><tspan class="TextParagraph" font-family="Liberation Sans, sans-serif" font-size="353px" font-weight="400"><tspan class="TextPosition" x="3327" y="2670"><tspan fill="rgb(0,0,0)" stroke="none">Rapport</tspan></tspan></tspan></text>
 <text class="TextShape"><tspan class="TextParagraph" font-family="Liberation Sans, sans-serif" font-size="353px" font-weight="400"><tspan class="TextPosition" x="4106" y="22020"><tspan fill="rgb(0,0,0)" stroke="none">06/04/19</tspan></tspan></tspan></text>
 <text class="TextShape"><tspan class="TextParagraph" font-family="Liberation Sans, sans-serif" font-size="353px" font-weight="400"><tspan class="TextPosition" x="7004" y="22020"><tspan fill="rgb(0,0,0)" stroke="none">06/04/19</tspan></tspan></tspan></text>
 <text class="TextShape"><tspan class="TextParagraph" font-family="Liberation Sans, sans-serif" font-size="353px" font-weight="400"><tspan class="TextPosition" x="9902" y="22020"><tspan fill="rgb(0,0,0)" stroke="none">07/04/19</tspan></tspan></tspan></text>
 <text class="TextShape"><tspan class="TextParagraph" font-family="Liberation Sans, sans-serif" font-size="353px" font-weight="400"><tspan class="TextPosition" x="12801" y="22020"><tspan fill="rgb(0,0,0)" stroke="none">07/04/19</tspan></tspan></tspan></text>
 <text class="TextShape"><tspan class="TextParagraph" font-family="Liberation Sans, sans-serif" font-size="353px" font-weight="400"><tspan class="TextPosition" x="15699" y="22020"><tspan fill="rgb(0,0,0)" stroke="none">08/04/19</tspan></tspan></tspan></text>
 <text class="TextShape"><tspan class="TextParagraph" font-family="Liberation Sans, sans-serif" font-size="353px" font-weight="400"><tspan class="TextPosition" x="18598" y="22020"><tspan fill="rgb(0,0,0)" stroke="none">08/04/19</tspan></tspan></tspan></text>
 <text class="TextShape"><tspan class="TextParagraph" font-family="Liberation Sans, sans-serif" font-size="353px" font-weight="400"><tspan class="TextPosition" x="21496" y="22020"><tspan fill="rgb(0,0,0)" stroke="none">09/04/19</tspan></tspan></tspan></text>
 <text class="TextShape"><tspan class="TextParagraph" font-family="Liberation Sans, sans-serif" font-size="353px" font-weight="400"><tspan class="TextPosition" x="24394" y="22020"><tspan fill="rgb(0,0,0)" stroke="none">09/04/19</tspan></tspan></tspan></text>
 <text class="TextShape"><tspan class="TextParagraph" font-family="Liberation Sans, sans-serif" font-size="353px" font-weight="400"><tspan class="TextPosition" x="27293" y="22020"><tspan fill="rgb(0,0,0)" stroke="none">10/04/19</tspan></tspan></tspan></text>
 <text class="TextShape"><tspan class="TextParagraph" font-family="Liberation Sans, sans-serif" font-size="353px" font-weight="400"><tspan class="TextPosition" x="30191" y="22020"><tspan fill="rgb(0,0,0)" stroke="none">10/04/19</tspan></tspan></tspan></text>
 <text class="TextShape"><tspan class="TextParagraph" font-family="Liberation Sans, sans-serif" font-size="353px" font-weight="400"><tspan class="TextPosition" x="33090" y="22020"><tspan fill="rgb(0,0,0)" stroke="none">11/04/19</tspan></tspan></tspan></text>
 <path fill="rgb(255,66,14)" stroke="none" d="M 35396,11132 L 35290,11132 35290,10921 35501,10921 35501,11132 35396,11132 Z"/>
 <text class="TextShape"><tspan class="TextParagraph" font-family="Liberation Sans, sans-serif" font-size="353px" font-weight="400"><tspan class="TextPosition" x="35601" y="11146"><tspan fill="rgb(0,0,0)" stroke="none">Total de jours</tspan></tspan></tspan></text>
 <text class="TextShape"><tspan class="TextParagraph" font-family="Liberation Sans, sans-serif" font-size="353px" font-weight="400"><tspan class="TextPosition" x="35601" y="11643"><tspan fill="rgb(0,0,0)" stroke="none">Date début</tspan></tspan></tspan></text>
</svg>